<!DOCTYPE svg PUBLIC "-//W3C//DTD SVG 1.1//EN" "http://www.w3.org/Graphics/SVG/1.1/DTD/svg11.dtd">

<!-- Uploaded to: SVG Repo, www.svgrepo.com, Transformed by: SVG Repo Mixer Tools -->
<svg fill="#FFFFFF" width="64px" height="64px" viewBox="0 0 1920 1920" xmlns="http://www.w3.org/2000/svg">

<g id="SVGRepo_bgCarrier" stroke-width="0"/>

<g id="SVGRepo_tracerCarrier" stroke-linecap="round" stroke-linejoin="round"/>

<g id="SVGRepo_iconCarrier"> <path d="M961 1C431.645 1 1 431.645 1 961s430.645 960 960 960 960-430.645 960-960S1490.355 1 961 1m0 1807.059c-467.125 0-847.059-379.934-847.059-847.059 0-467.125 379.934-847.059 847.059-847.059 467.125 0 847.059 379.934 847.059 847.059 0 467.125-379.934 847.059-847.059 847.059m319.465-1246.374-319.51 319.51-319.398-319.51-79.85 79.85 319.398 319.51-319.397 319.398 79.85 79.85 319.397-319.398 319.51 319.397 79.85-79.85-319.51-319.397 319.51-319.51-79.85-79.85Z" fill-rule="evenodd"/> </g>

</svg>